<svg width="24" height="24" viewBox="0 0 24 24" fill="none" xmlns="http://www.w3.org/2000/svg">
<g id="Portfeil">
<path id="Portfeil_2" fill-rule="evenodd" clip-rule="evenodd" d="M9 6C9 5.44772 9.44772 5 10 5H14C14.5523 5 15 5.44772 15 6H9ZM7 6C7 4.34315 8.34315 3 10 3H14C15.6569 3 17 4.34315 17 6H19C20.6569 6 22 7.34315 22 9V11V18C22 19.6569 20.6569 21 19 21H5C3.34315 21 2 19.6569 2 18V11V9C2 7.34315 3.34315 6 5 6H7ZM16 8H19C19.5523 8 20 8.44772 20 9V10H4V9C4 8.44772 4.44772 8 5 8H8H16ZM20 18V12H4V18C4 18.5523 4.44772 19 5 19H19C19.5523 19 20 18.5523 20 18Z" fill="white"/>
</g>
</svg>
